<?xml version="1.0" standalone="no"?>
<!DOCTYPE svg PUBLIC "-//W3C//DTD SVG 20010904//EN"
 "http://www.w3.org/TR/2001/REC-SVG-20010904/DTD/svg10.dtd">
<svg version="1.0" xmlns="http://www.w3.org/2000/svg"
 width="50px" height="50px" viewBox="0 0 3844.000000 3844.000000"
 preserveAspectRatio="xMidYMid meet">

<g transform="translate(0.000000,3844.000000) scale(0.100000,-0.100000)"
fill="#000000" stroke="none">
<path d="M18625 33613 c-3389 -140 -6579 -1451 -9095 -3737 -344 -313 -814
-791 -1131 -1151 -1664 -1891 -2806 -4196 -3298 -6660 -498 -2498 -329 -5092
488 -7496 927 -2727 2678 -5133 5001 -6874 2067 -1548 4491 -2507 7040 -2784
1724 -188 3469 -69 5121 348 1555 392 3027 1040 4375 1926 1687 1109 3135
2574 4226 4275 1191 1859 1933 3954 2177 6145 56 501 79 874 88 1415 30 1947
-336 3886 -1072 5675 -139 339 -251 583 -432 945 -598 1198 -1301 2230 -2213
3245 -137 152 -723 745 -895 906 -136 127 -502 446 -665 579 -1830 1497 -3986
2518 -6285 2975 -729 145 -1411 228 -2180 265 -185 9 -1060 11 -1250 3z m830
-5568 c355 -90 627 -372 710 -735 25 -110 27 -417 17 -3760 l-8 -2925 -27 -88
c-101 -330 -357 -579 -687 -668 -73 -20 -108 -23 -245 -23 -145 1 -169 3 -250
28 -172 52 -287 119 -413 240 -137 132 -236 309 -273 491 -18 87 -19 210 -19
3357 0 2810 2 3276 14 3335 87 411 415 716 831 772 97 13 243 3 350 -24z
m-4352 -3198 c116 -31 282 -108 376 -174 252 -179 434 -497 472 -823 31 -272
-50 -570 -214 -785 -20 -25 -108 -121 -195 -213 -276 -288 -429 -476 -617
-757 -725 -1084 -1011 -2385 -810 -3678 217 -1391 1003 -2640 2175 -3451 288
-199 686 -413 1015 -544 975 -389 2053 -472 3075 -236 1054 244 2012 819 2729
1640 1279 1462 1629 3495 915 5307 -72 184 -261 566 -361 732 -225 373 -447
659 -786 1012 -85 89 -173 188 -195 220 -215 316 -257 718 -112 1065 79 192
200 359 342 472 106 85 288 177 423 213 90 24 117 27 280 27 204 1 285 -14
447 -84 152 -65 246 -136 443 -334 701 -703 1258 -1554 1630 -2491 577 -1454
679 -3064 290 -4590 -616 -2418 -2437 -4388 -4800 -5191 -558 -190 -1123 -311
-1740 -371 -228 -22 -1048 -26 -1270 -5 -1324 122 -2471 522 -3535 1232 -744
497 -1432 1170 -1953 1911 -1362 1940 -1713 4437 -941 6691 331 965 867 1863
1568 2628 325 354 474 470 701 550 139 48 219 60 395 56 127 -3 173 -8 253
-29z"/>
</g>
</svg>
