<svg class="svg-icon" style="width: 1em; height: 1em;vertical-align: middle;fill: currentColor;overflow: hidden;" viewBox="0 0 1024 1024" version="1.1" xmlns="http://www.w3.org/2000/svg"><path d="M109.6704 390.519467a123.101867 123.101867 0 0 1-9.915733-8.925867 81.5104 81.5104 0 0 1-7.5776-8.686933c-10.1376-13.0048-15.36-28.8768-15.36-46.933334 0-18.0736 5.239467-33.9456 15.5648-47.189333 1.928533-2.6112 4.4544-5.512533 7.389866-8.430933a80.554667 80.554667 0 0 1 8.6528-7.543467c12.936533-10.103467 28.8256-15.342933 46.882134-15.342933 18.056533 0 33.928533 5.239467 47.172266 15.547733 2.645333 1.979733 5.563733 4.5056 8.448 7.406933 3.2768 3.2768 6.263467 6.587733 8.9088 9.915734l-26.6752 21.2992a83.285333 83.285333 0 0 0-6.4-7.1168A45.533867 45.533867 0 0 0 181.76 290.133333c-7.458133-5.802667-16.0256-8.533333-26.453333-8.533333-10.427733 0-18.9952 2.730667-26.197334 8.3456a51.626667 51.626667 0 0 0-9.591466 9.506133c-5.853867 7.5264-8.584533 16.093867-8.584534 26.5216 0 10.410667 2.730667 18.9952 8.3456 26.2144 1.4336 1.911467 2.901333 3.566933 4.573867 5.239467 2.3552 2.338133 4.727467 4.5056 7.1168 6.4l-21.2992 26.692267z m170.666667-170.666667a123.101867 123.101867 0 0 1-9.915734-8.925867 81.373867 81.373867 0 0 1-7.492266-8.5504c-10.257067-13.243733-15.4624-29.064533-15.4624-47.069866 0-17.988267 5.188267-33.809067 15.428266-47.018667a76.970667 76.970667 0 0 1 7.509334-8.584533c2.8672-2.850133 5.700267-5.3248 8.516266-7.441067 13.226667-10.257067 29.047467-15.4624 47.0528-15.4624s33.826133 5.205333 47.0528 15.4624c2.850133 2.133333 5.717333 4.625067 8.567467 7.492267 3.2768 3.2768 6.263467 6.587733 8.9088 9.915733l-26.6752 21.2992a83.285333 83.285333 0 0 0-6.4-7.1168A45.533867 45.533867 0 0 0 352.426667 119.466667l10.24-13.653334-10.478934 13.4656C344.968533 113.664 336.384 110.933333 325.973333 110.933333c-10.427733 0-18.9952 2.730667-26.197333 8.3456L289.28 105.813333l10.222933 13.6704a50.568533 50.568533 0 0 0-9.3184 9.284267L276.48 118.613333l13.4656 10.496c-5.614933 7.202133-8.3456 15.7696-8.3456 26.197334 0 10.410667 2.730667 18.9952 8.3456 26.2144l-13.4656 10.478933 13.653333-10.24c1.245867 1.672533 2.730667 3.328 4.386134 5.000533 2.3552 2.338133 4.727467 4.5056 7.1168 6.4l-21.2992 26.692267z"  /><path d="M802.133333 904.533333a17.015467 17.015467 0 0 1-12.066133-5.000533l-66.730667-66.730667C687.342933 852.104533 647.3216 861.866667 604.16 861.866667c-71.4752 0-133.546667-25.8048-184.456533-76.680534l-1.348267-1.348266-1.211733-1.194667-181.76-181.76a17.0496 17.0496 0 0 1 0.119466-24.251733l31.146667-30.549334-158.327467-156.740266-0.085333-0.085334-14.506667-14.506666a17.1008 17.1008 0 0 1 0-24.149334 17.1008 17.1008 0 0 1 24.149334 0l14.472533 14.4896 158.5664 156.962134L352.187733 460.8 179.933867 288.5632a17.066667 17.066667 0 1 1 24.149333-24.149333l14.506667 14.506666 157.678933 157.678934 60.433067-61.047467-172.288-171.485867a17.1008 17.1008 0 0 1 0-24.149333 17.1008 17.1008 0 0 1 24.149333 0L460.834133 351.402667l62.754134-62.139734L350.600533 117.896533a17.066667 17.066667 0 1 1 24.149334-24.149333l14.506666 14.506667 158.4128 156.842666 28.962134-29.559466a17.032533 17.032533 0 0 1 12.117333-5.12h0.068267c4.539733 0 8.891733 1.809067 12.100266 5.0176l175.104 175.957333c3.054933 2.491733 6.0928 5.256533 9.1648 8.311467C836.061867 470.613333 861.866667 532.667733 861.866667 604.16c0 43.1616-9.762133 83.2-29.064534 119.159467l66.730667 66.730666a17.0496 17.0496 0 0 1 0 24.132267l-85.333333 85.333333A16.964267 16.964267 0 0 1 802.133333 904.533333z m-49.3568-90.555733L802.133333 863.3344 863.3344 802.133333l-49.373867-49.3568a271.018667 271.018667 0 0 1-29.013333 32.631467 265.864533 265.864533 0 0 1-32.170667 28.5696zM271.7184 588.919467L443.8016 761.002667c44.936533 44.919467 97.3824 66.730667 160.3584 66.730666 41.5232 0 79.5648-10.3424 113.083733-30.754133a227.293867 227.293867 0 0 0 43.5712-35.703467c14.728533-14.199467 26.743467-28.842667 36.164267-44.032 20.394667-33.501867 30.754133-71.543467 30.754133-113.083733 0-62.993067-21.8112-115.438933-66.679466-160.324267a82.432 82.432 0 0 0-7.082667-6.382933c-0.512-0.4096-1.024-0.853333-1.4848-1.314133l-163.584-164.386134-28.859733 29.457067-0.136534 0.136533-0.034133 0.034134-0.017067 0.017066h-0.017066l-86.971734 86.101334-84.394666 85.248-0.085334 0.085333-85.2992 85.2992-0.1536 0.1536-31.214933 30.634667zM105.813333 306.346667a17.0496 17.0496 0 0 1-12.066133-29.1328l12.8-12.8a17.0496 17.0496 0 1 1 24.132267 24.132266l-12.8 12.8a16.9472 16.9472 0 0 1-12.066134 5.000534z m170.666667-170.666667a17.0496 17.0496 0 0 1-12.066133-29.1328l12.8-12.8a17.0496 17.0496 0 1 1 24.132266 24.132267l-12.8 12.8a16.9472 16.9472 0 0 1-12.066133 5.000533z"  /><path d="M868.932267 820.650667l85.333333 85.333333-48.2816 48.264533-85.333333-85.333333z"  /></svg>